<?xml version="1.0" encoding="iso-8859-1"?>
<!-- Generator: Adobe Illustrator 19.0.0, SVG Export Plug-In . SVG Version: 6.00 Build 0)  -->
<svg version="1.1" id="Layer_1" xmlns="http://www.w3.org/2000/svg" xmlns:xlink="http://www.w3.org/1999/xlink" x="0px" y="0px"
	 viewBox="0 0 512.001 512.001" style="enable-background:new 0 0 512.001 512.001;" xml:space="preserve">
<path style="fill:#A7B0C0;" d="M64,384.001c-28.237,0-51.2-22.963-51.2-51.2s22.963-51.2,51.2-51.2h281.6
	c21.53,0,40.866,13.713,48.111,34.116v34.167c-7.245,20.403-26.581,34.116-48.111,34.116H64z"/>
<rect x="64" y="204.801" style="fill:#FEDEA1;" width="281.6" height="76.8"/>
<polygon style="fill:#C5DFE2;" points="64,204.801 64,128.001 162.825,128.001 188.425,204.801 "/>
<path style="fill:#573A32;" d="M473.6,268.801c0-7.074-5.726-12.8-12.8-12.8s-12.8,5.726-12.8,12.8
	c0,19.388,2.398,36.352,5.931,51.2h-45.628c-5.12-25.122-25.003-44.911-50.159-49.929c0.026-0.444,0.256-0.819,0.256-1.271v-51.2
	c0-14.14-11.46-25.6-25.6-25.6h-25.6v-51.2h-25.6v51.2h-83.951l-19.763-59.298c-3.482-10.453-13.269-17.502-24.286-17.502H76.8
	c-14.14,0-25.6,11.46-25.6,25.6v128c0,0.452,0.23,0.828,0.256,1.271C22.161,275.917,0,301.808,0,332.801c0,35.285,28.715,64,64,64
	h281.6c30.908,0,56.755-22.025,62.703-51.2h53.564c11.887,30.455,27.23,46.404,28.279,47.454c2.5,2.5,5.777,3.746,9.054,3.746
	c3.277,0,6.554-1.246,9.054-3.746c4.975-4.983,5-13.047,0.051-18.048C507.904,374.588,473.6,338.723,473.6,268.801z M76.8,140.801
	h76.8l17.067,51.2H76.8V140.801z M76.8,217.601h256v51.2h-256V217.601z M243.2,345.601h138.453
	c-5.291,14.882-19.354,25.6-36.053,25.6H64c-21.205,0-38.4-17.195-38.4-38.4c0-21.205,17.195-38.4,38.4-38.4h281.6
	c16.691,0,30.763,10.718,36.053,25.6H243.2c-7.074,0-12.8,5.726-12.8,12.8C230.4,339.875,236.126,345.601,243.2,345.601z"/>
<g>
</g>
<g>
</g>
<g>
</g>
<g>
</g>
<g>
</g>
<g>
</g>
<g>
</g>
<g>
</g>
<g>
</g>
<g>
</g>
<g>
</g>
<g>
</g>
<g>
</g>
<g>
</g>
<g>
</g>
</svg>
