<?xml version="1.0" encoding="iso-8859-1"?>
<!-- Generator: Adobe Illustrator 19.0.0, SVG Export Plug-In . SVG Version: 6.00 Build 0)  -->
<svg version="1.1" id="Layer_1" xmlns="http://www.w3.org/2000/svg" xmlns:xlink="http://www.w3.org/1999/xlink" x="0px" y="0px"
	 viewBox="0 0 512 512" style="enable-background:new 0 0 512 512;" xml:space="preserve">
<path style="fill:#BFA779;" d="M409.634,89.604c-13.704,0-26.462-7.356-33.297-19.2c-5.129-8.875-6.485-19.217-3.823-29.141
	c2.654-9.916,9.003-18.193,17.877-23.313c5.828-3.362,12.45-5.146,19.157-5.146c13.696,0,26.462,7.356,33.297,19.2
	c5.129,8.875,6.485,19.217,3.823,29.141c-2.654,9.916-9.003,18.193-17.877,23.313C422.963,87.821,416.35,89.604,409.634,89.604
	L409.634,89.604z"/>
<g>
	<path style="fill:#FEDEA1;" d="M155.972,168.068L368.333,45.47l4.42,15.923c1.024,3.686,2.159,6.554,3.584,9.02
		c1.425,2.466,3.337,4.89,6.007,7.603l11.597,11.793L188.322,208.516L155.972,168.068z"/>
	<path style="fill:#FEDEA1;" d="M167.45,447.996l-2.082-10.257c-4.813-23.723-25.916-40.943-50.159-40.943
		s-45.346,17.22-50.159,40.943l-2.099,10.257H38.4v-102.4H192v102.4H167.45z"/>
</g>
<polygon style="fill:#A9D0D3;" points="115.2,268.796 115.2,117.107 236.553,268.796 "/>
<path style="fill:#BFA779;" d="M115.2,499.196c-28.237,0-51.2-22.963-51.2-51.2s22.963-51.2,51.2-51.2s51.2,22.963,51.2,51.2
	S143.437,499.196,115.2,499.196z"/>
<polygon style="fill:#C5DFE2;" points="320,332.796 320,243.196 442.052,243.196 501.786,332.813 "/>
<path style="fill:#BFA779;" d="M396.8,499.196c-28.237,0-51.2-22.963-51.2-51.2s22.963-51.2,51.2-51.2s51.2,22.963,51.2,51.2
	S425.037,499.196,396.8,499.196z"/>
<rect x="12.8" y="140.796" style="fill:#6FB0B6;" width="102.4" height="128"/>
<rect x="12.8" y="268.796" style="fill:#BFA779;" width="230.4" height="76.8"/>
<path style="fill:#FEDEA1;" d="M449.05,447.996l-2.091-10.249c-4.83-23.723-25.933-40.951-50.159-40.951
	s-45.329,17.229-50.159,40.951l-2.091,10.249H320v-115.2l179.2,0.009v115.191H449.05z"/>
<path style="fill:#573A32;" d="M456.499,241.796c-4.745-7.125-12.74-11.401-21.299-11.401H332.8c-14.14,0-25.6,11.46-25.6,25.6
	v179.2H204.8v-76.8h25.6c14.14,0,25.6-11.46,25.6-25.6v-51.2c0-5.811-1.98-11.452-5.606-15.991l-42.761-53.453l192.119-110.916
	c2.569,0.512,5.188,0.751,7.817,0.87c-2.5,11.58-6.938,17.476-11.315,23.108C390.502,132.561,384,140.907,384,156.796
	c0,21.171,17.229,38.4,38.4,38.4s38.4-17.229,38.4-38.4c0-7.074-5.726-12.8-12.8-12.8s-12.8,5.726-12.8,12.8
	c0,7.066-5.751,12.8-12.8,12.8s-12.8-5.734-12.8-12.8c0-7.091,2.15-9.839,6.827-15.846c6.647-8.516,15.275-19.857,17.903-45.005
	c0.282-0.154,0.58-0.23,0.862-0.393c24.491-14.14,32.879-45.449,18.739-69.939S408.474-7.266,383.991,6.874
	c-4.062,2.338-7.117,5.598-10.231,8.798L59.238,127.996H25.6c-14.14,0-25.6,11.46-25.6,25.6v179.2c0,14.14,11.46,25.6,25.6,25.6
	v76.8H12.8c-7.074,0-12.8,5.726-12.8,12.8s5.726,12.8,12.8,12.8h39.689c5.931,29.21,31.744,51.2,62.711,51.2
	s56.781-21.99,62.711-51.2h156.186c5.948,29.175,31.795,51.2,62.703,51.2s56.755-22.025,62.703-51.2H486.4
	c14.14,0,25.6-11.46,25.6-25.6V332.804c0-5.052-1.493-9.993-4.301-14.199L456.499,241.796z M396.792,29.035
	c12.22-7.057,27.913-2.85,34.97,9.37c7.057,12.228,2.85,27.913-9.37,34.97c-12.228,7.057-27.913,2.859-34.97-9.37
	C380.365,51.785,384.563,36.092,396.792,29.035z M365.252,76.804c2.227,3.849,4.983,7.151,7.97,10.18L191.454,191.928
	l-16.179-20.224L360.422,64.815C361.557,68.911,363.025,72.956,365.252,76.804z M304.333,67.631l-145.237,83.857l-11.11-13.884
	c-3.883-4.847-9.515-7.484-15.522-8.593L304.333,67.631z M128,153.596l81.92,102.4H128V153.596z M25.6,153.596h76.8v102.4H25.6
	V153.596z M25.6,281.596h204.8v51.2H25.6V281.596z M115.2,486.396c-21.171,0-38.4-17.229-38.4-38.4c0-21.171,17.229-38.4,38.4-38.4
	s38.4,17.229,38.4,38.4C153.6,469.167,136.371,486.396,115.2,486.396z M179.2,435.196h-1.289c-5.931-29.21-31.744-51.2-62.711-51.2
	s-56.781,21.99-62.711,51.2H51.2v-76.8h128V435.196z M332.8,255.996h102.4l42.667,64.009L332.8,319.996V255.996z M396.8,486.396
	c-21.205,0-38.4-17.195-38.4-38.4c0-21.205,17.195-38.4,38.4-38.4c21.205,0,38.4,17.195,38.4,38.4
	C435.2,469.201,418.005,486.396,396.8,486.396z M486.4,371.196h-25.6v25.6h25.6v38.4h-26.897c-5.948-29.175-31.795-51.2-62.703-51.2
	s-56.755,22.025-62.703,51.2H332.8v-89.6l153.6,0.009V371.196z"/>
<g>
</g>
<g>
</g>
<g>
</g>
<g>
</g>
<g>
</g>
<g>
</g>
<g>
</g>
<g>
</g>
<g>
</g>
<g>
</g>
<g>
</g>
<g>
</g>
<g>
</g>
<g>
</g>
<g>
</g>
</svg>
